<svg preserveAspectRatio="none" width="100%" height="100%" overflow="visible" style="display: block;" viewBox="0 0 26.4028 26.4028" fill="none" xmlns="http://www.w3.org/2000/svg">
<g id="Frame 45">
<path id="Vector" d="M11.896 14.5053C11.6667 14.2763 11.3934 14.0962 11.0926 13.9758L1.57657 10.1598C1.46295 10.1142 1.36599 10.035 1.29872 9.93267C1.23144 9.83039 1.19706 9.70997 1.2002 9.58759C1.20333 9.4652 1.24383 9.34671 1.31625 9.248C1.38868 9.1493 1.48956 9.07511 1.60537 9.0354L24.4054 1.2354C24.5117 1.19699 24.6268 1.18966 24.7371 1.21427C24.8474 1.23887 24.9485 1.29439 25.0284 1.37433C25.1084 1.45427 25.1639 1.55532 25.1885 1.66566C25.2131 1.776 25.2058 1.89107 25.1674 1.9974L17.3674 24.7974C17.3277 24.9132 17.2535 25.0141 17.1548 25.0865C17.0561 25.1589 16.9376 25.1994 16.8152 25.2026C16.6928 25.2057 16.5724 25.1713 16.4701 25.104C16.3678 25.0368 16.2886 24.9398 16.243 24.8262L12.427 15.3078C12.306 15.0072 12.1254 14.7342 11.896 14.5053ZM11.896 14.5053L25.0246 1.3794" stroke="var(--stroke-0, black)" stroke-width="2.4" stroke-linecap="round" stroke-linejoin="round"/>
</g>
</svg>
